<?xml version="1.0" encoding="UTF-8" standalone="no"?>
<!DOCTYPE svg PUBLIC "-//W3C//DTD SVG 1.1//EN" "http://www.w3.org/Graphics/SVG/1.1/DTD/svg11.dtd">
<svg width="100%" height="100%" viewBox="0 0 512 512" version="1.1" xmlns="http://www.w3.org/2000/svg" xmlns:xlink="http://www.w3.org/1999/xlink" xml:space="preserve" xmlns:serif="http://www.serif.com/" style="fill-rule:evenodd;clip-rule:evenodd;stroke-linecap:round;stroke-linejoin:round;stroke-miterlimit:1.5;">
    <g transform="matrix(0.960265,0,0,0.960265,8.63576,0.430464)">
        <path d="M407.543,36L337.283,85.975C337.283,85.975 337.643,85.977 338.246,85.98C340.489,85.994 342.511,87.334 343.396,89.395C344.282,91.455 343.864,93.845 342.331,95.482C331.665,106.868 314.19,125.523 306.46,133.775C303.978,136.424 300.516,137.936 296.886,137.955C292.032,137.981 285.832,138.013 285.832,138.013L260,169.261L212,261L267,294L334,240L381.501,229.452C381.501,229.452 381.528,226.242 381.553,223.248C381.581,220.007 382.908,216.912 385.237,214.657C393.549,206.611 414.082,186.736 425.453,175.729C426.817,174.408 428.835,174.024 430.589,174.75C432.343,175.477 433.498,177.175 433.529,179.073C433.533,179.328 433.536,179.472 433.536,179.472L465.405,112L460,264L461,417L432,473L300,489L103,483L45.045,477.634L16,391L23,250L22,93L178,73L407.543,36Z" style="fill:none;"/>
        <clipPath id="_clip1">
            <path d="M407.543,36L337.283,85.975C337.283,85.975 337.643,85.977 338.246,85.98C340.489,85.994 342.511,87.334 343.396,89.395C344.282,91.455 343.864,93.845 342.331,95.482C331.665,106.868 314.19,125.523 306.46,133.775C303.978,136.424 300.516,137.936 296.886,137.955C292.032,137.981 285.832,138.013 285.832,138.013L260,169.261L212,261L267,294L334,240L381.501,229.452C381.501,229.452 381.528,226.242 381.553,223.248C381.581,220.007 382.908,216.912 385.237,214.657C393.549,206.611 414.082,186.736 425.453,175.729C426.817,174.408 428.835,174.024 430.589,174.75C432.343,175.477 433.498,177.175 433.529,179.073C433.533,179.328 433.536,179.472 433.536,179.472L465.405,112L460,264L461,417L432,473L300,489L103,483L45.045,477.634L16,391L23,250L22,93L178,73L407.543,36Z"/>
        </clipPath>
        <g clip-path="url(#_clip1)">
            <g transform="matrix(0.699588,0,0,0.699588,59.148,101.506)">
                <path d="M498,88.274C498,47.833 465.167,15 424.726,15L85.274,15C44.833,15 12,47.833 12,88.274L12,427.726C12,468.167 44.833,501 85.274,501L424.726,501C465.167,501 498,468.167 498,427.726L498,88.274Z" style="fill:none;stroke:black;stroke-width:74.43px;"/>
            </g>
        </g>
    </g>
    <g transform="matrix(0.65592,-0.656643,0.787148,0.786282,20.8991,128.849)">
        <path d="M411.882,210.002C411.882,207.084 410.492,204.286 408.019,202.222C405.546,200.159 402.191,199 398.693,199L156,199L81,224.946L156,256L395.286,256C404.452,256 411.882,249.802 411.882,242.156C411.882,232.276 411.882,219.169 411.882,210.002Z" style="stroke:black;stroke-width:24.4px;stroke-linecap:square;"/>
    </g>
    <g transform="matrix(1,0,0,1,29,-28)">
        <path d="M218,258C218,258 210.444,276.051 205.123,288.762C204.21,290.942 204.657,293.455 206.264,295.187C207.872,296.919 210.344,297.552 212.586,296.805C226.808,292.064 248,285 248,285L218,258Z"/>
    </g>
</svg>
